<svg viewBox="0 0 512 512" xmlns="http://www.w3.org/2000/svg">
  <rect width="512" height="512" fill="#5865f2"/>
  <path d="m358.7 210.09c-19.474-9.074-39.998-15.46-61.054-19.089-2.871 5.257-5.504 10.639-7.828 16.148-22.402-3.381-45.235-3.381-67.653 0-2.383-5.509-5.001-10.891-7.872-16.086-21.131 3.631-41.655 10.015-61.128 19.09-38.71 58.019-49.156 114.66-43.903 170.42 22.654 16.96 47.987 29.853 74.918 38.115 6.052-8.262 11.424-17.085 16.011-26.287-8.745-3.316-17.224-7.384-25.288-12.267 2.145-1.563 4.217-3.128 6.229-4.881 47.441 22.657 102.28 22.657 149.73 0 2.013 1.69 4.085 3.318 6.157 4.881-8.05 4.821-16.544 8.951-25.275 12.267 4.647 9.202 9.96 17.964 15.997 26.225 26.931-8.261 52.264-21.154 74.918-38.115h0.074c6.156-64.591-10.505-120.67-44.036-170.43zm-151.88 136.18c-14.605 0-26.635-13.582-26.635-30.105 0-16.522 11.734-30.104 26.635-30.104s26.857 13.582 26.621 30.104c0 16.523-11.794 30.105-26.621 30.105zm98.314 0c-14.605 0-26.635-13.582-26.635-30.105 0-16.522 11.793-30.104 26.635-30.104 14.826 0 26.856 13.582 26.619 30.104 0 16.523-11.793 30.105-26.619 30.105z" fill="#ffffff"/>
  <rect width="512" height="105.41" fill="#202225"/>
  <circle cx="52.706" cy="52.706" r="22.588" fill="#ff605c"/>
  <circle cx="128" cy="52.706" r="22.588" fill="#ffbd44"/>
  <circle cx="203.29" cy="52.706" r="22.588" fill="#00ca4e"/>
</svg>